<svg width="1451" height="598" viewBox="0 0 1451 598" fill="none" xmlns="http://www.w3.org/2000/svg">
<path fill-rule="evenodd" clip-rule="evenodd" d="M1056.23 481.972C959.105 492.132 562.453 604.891 468.373 570.048C471.52 548.689 -20.711 590.237 288.729 420.87C-56.8293 339.451 -92.0406 111.087 227.765 124.581C226.689 87.9497 326.095 -5.87214 568.984 73.4091C574.81 43.9813 725.801 78.0308 718.554 47.2835C757.415 29.1393 814.608 70.8336 860.968 61.6585C906.856 52.5977 957.13 47.6515 1001.74 48.8316C1046.95 49.5679 1077.62 58.3718 1106.27 68.5074C1135.19 78.933 1162.09 90.6902 1206.02 104.058C1246.68 118.362 1304.37 134.267 1352.87 162.193C1401.2 189.247 1440.34 228.324 1439.79 268.883C1445.38 311.912 1406.82 342.892 1368.07 364.635C1327.83 386.623 1287.4 399.366 1254.92 411.696C1221.64 423.779 1196.32 435.435 1167.63 449.54C1138.8 462.902 1106.59 478.713 1056.23 481.972Z" fill="#FFA3D0" fill-opacity="0.51"/>
</svg>
