<svg width="559" height="585" viewBox="0 0 559 585" fill="none" xmlns="http://www.w3.org/2000/svg">
<path d="M264.38 68.5249C303.503 68.5249 331.737 75.5832 349.08 89.6999C366.827 103.817 375.7 124.588 375.7 152.015V167.14C375.7 185.29 371.667 202.633 363.6 219.17C355.533 235.303 342.022 253.252 323.065 273.015L303.1 294.795C296.647 301.652 292.21 308.105 289.79 314.155C287.773 319.802 286.765 328.675 286.765 340.775V368H237.76V348.64C237.76 328.877 239.172 314.76 241.995 306.29C244.818 297.82 251.473 287.333 261.96 274.83L297.05 233.69C307.94 220.38 315.2 209.288 318.83 200.415C322.46 191.542 324.275 180.047 324.275 165.93V152.62C324.275 137.697 319.637 126.807 310.36 119.95C301.487 113.093 285.152 109.665 261.355 109.665C242.398 109.665 216.988 113.295 185.125 120.555V78.2049C216.585 71.7516 243.003 68.5249 264.38 68.5249ZM263.17 423.66C274.06 423.66 282.328 426.08 287.975 430.92C294.025 435.76 297.05 442.617 297.05 451.49V469.035C297.05 477.908 294.025 484.563 287.975 489C282.328 493.84 274.06 496.26 263.17 496.26C252.683 496.26 244.415 493.84 238.365 489C232.718 484.563 229.895 477.908 229.895 469.035V451.49C229.895 442.617 232.718 435.76 238.365 430.92C244.415 426.08 252.683 423.66 263.17 423.66Z" fill="#65C1FF" fill-opacity="0.79"/>
<path d="M419.604 106.756C457.561 116.235 483.386 129.958 497.079 147.925C511.163 165.989 515.16 188.392 509.071 215.134L505.713 229.882C501.684 247.579 493.92 263.512 482.423 277.682C471.015 291.458 453.921 305.685 431.141 320.362L406.936 336.761C399.152 341.883 393.415 347.1 389.724 352.413C386.514 357.43 383.566 365.838 380.879 377.636L374.835 404.181L327.29 392.308L331.588 373.431C335.976 354.161 340.48 340.739 345.099 333.164C349.719 325.59 358.504 316.977 371.454 307.327L414.632 275.715C428.152 265.376 437.659 256.32 443.15 248.547C448.642 240.775 452.955 230.007 456.089 216.242L459.044 203.264C462.357 188.714 460.275 176.972 452.797 168.038C445.71 159.203 430.623 151.902 407.535 146.137C389.143 141.544 363.685 138.927 331.159 138.286L340.561 96.9927C372.516 98.3227 398.864 101.577 419.604 106.756ZM339.586 452.736C350.151 455.374 357.636 459.737 362.04 465.824C366.835 472.009 368.248 479.428 366.278 488.08L362.383 505.187C360.413 513.839 356 519.595 349.146 522.455C342.593 525.806 334.033 526.162 323.468 523.524C313.294 520.983 305.809 516.62 301.014 510.435C296.52 504.741 295.259 497.568 297.229 488.916L301.124 471.809C303.094 463.157 307.355 457.156 313.908 453.805C320.852 450.551 329.412 450.195 339.586 452.736Z" fill="#6DA4E0"/>
<path d="M108.602 103.558C145.713 91.1718 174.549 88.9856 195.11 96.9997C216.054 104.886 230.518 121.949 238.503 148.187L242.907 162.657C248.191 180.021 249.414 197.89 246.577 216.264C243.623 234.252 236.032 255.701 223.804 280.61L211.207 307.767C207.082 316.37 204.753 323.949 204.219 330.503C203.95 336.543 205.577 345.351 209.099 356.927L217.026 382.973L170.542 398.488L164.905 379.967C159.151 361.059 156.38 347.107 156.592 338.11C156.805 329.114 160.064 316.974 166.371 301.692L187.678 251.225C194.133 235.044 197.79 222.134 198.65 212.496C199.51 202.858 197.885 191.286 193.775 177.781L189.9 165.047C185.555 150.771 177.985 141.821 167.189 138.198C156.776 134.448 140.283 136.34 117.71 143.874C99.7289 149.876 76.6829 161.393 48.5723 178.427L36.2424 137.912C64.2052 121.777 88.3251 110.326 108.602 103.558ZM210.85 443.692C221.179 440.244 229.727 439.941 236.492 442.784C243.64 445.499 248.506 451.101 251.089 459.59L256.197 476.375C258.781 484.864 257.849 492.188 253.402 498.348C249.455 504.766 242.317 509.699 231.987 513.147C222.04 516.467 213.492 516.769 206.344 514.055C199.696 511.598 195.081 506.125 192.497 497.636L187.389 480.851C184.806 472.362 185.487 464.909 189.434 458.491C193.764 451.945 200.902 447.012 210.85 443.692Z" fill="#4F91D9"/>
</svg>
