<svg width="151" height="124" viewBox="0 0 151 124" fill="none" xmlns="http://www.w3.org/2000/svg">
<circle cx="78" cy="62" r="62" fill="#82CCFF"/>
<g opacity="0.9">
<path d="M26.7859 37.7827H32.2379L37.2839 71.5387L43.6059 37.9567H48.2459L54.6259 71.7127L59.5559 37.7827H64.8919L57.3519 84.7627H52.5959L46.0419 49.9627L39.4299 84.7627H34.4419L26.7859 37.7827ZM75.2458 37.7827H93.3998V42.4807H81.7998V58.1407H90.7898V62.7807H81.7998V84.7627H75.2458V37.7827ZM113.62 85.2847C109.676 85.2847 106.66 84.0667 104.572 81.6307C102.523 79.1947 101.382 75.85 101.15 71.5967L106.95 70.0307C107.143 73.0467 107.723 75.4827 108.69 77.3387C109.695 79.1947 111.339 80.1227 113.62 80.1227C115.321 80.1227 116.597 79.6587 117.448 78.7307C118.337 77.764 118.782 76.3914 118.782 74.6127C118.782 72.6794 118.376 71.0747 117.564 69.7987C116.752 68.5227 115.457 67.1114 113.678 65.5647L105.79 58.6047C104.205 57.2127 103.045 55.724 102.31 54.1387C101.614 52.5147 101.266 50.5427 101.266 48.2227C101.266 44.7814 102.252 42.1134 104.224 40.2187C106.196 38.324 108.883 37.3767 112.286 37.3767C115.998 37.3767 118.801 38.3627 120.696 40.3347C122.591 42.3067 123.731 45.3614 124.118 49.4987L118.55 51.0067C118.357 48.2614 117.815 46.154 116.926 44.6847C116.075 43.1767 114.529 42.4227 112.286 42.4227C110.623 42.4227 109.347 42.8674 108.458 43.7567C107.569 44.6074 107.124 45.8834 107.124 47.5847C107.124 48.9767 107.356 50.156 107.82 51.1227C108.284 52.0507 109.077 52.998 110.198 53.9647L118.144 60.9247C120.193 62.742 121.817 64.714 123.016 66.8407C124.253 68.9674 124.872 71.384 124.872 74.0907C124.872 77.532 123.828 80.258 121.74 82.2687C119.652 84.2794 116.945 85.2847 113.62 85.2847Z" fill="white"/>
</g>
</svg>
