<svg width="152" height="124" viewBox="0 0 152 124" fill="none" xmlns="http://www.w3.org/2000/svg">
<circle cx="78" cy="62" r="62" fill="#52AEE2"/>
<g opacity="0.9">
<path d="M27.7859 39.7827H33.2379L38.2839 73.5387L44.6059 39.9567H49.2459L55.6259 73.7127L60.5559 39.7827H65.8919L58.3519 86.7627H53.5959L47.0419 51.9627L40.4299 86.7627H35.4419L27.7859 39.7827ZM76.2458 39.7827H94.3998V44.4807H82.7998V60.1407H91.7898V64.7807H82.7998V86.7627H76.2458V39.7827ZM114.62 87.2847C110.676 87.2847 107.66 86.0667 105.572 83.6307C103.523 81.1947 102.382 77.85 102.15 73.5967L107.95 72.0307C108.143 75.0467 108.723 77.4827 109.69 79.3387C110.695 81.1947 112.339 82.1227 114.62 82.1227C116.321 82.1227 117.597 81.6587 118.448 80.7307C119.337 79.764 119.782 78.3914 119.782 76.6127C119.782 74.6794 119.376 73.0747 118.564 71.7987C117.752 70.5227 116.457 69.1114 114.678 67.5647L106.79 60.6047C105.205 59.2127 104.045 57.724 103.31 56.1387C102.614 54.5147 102.266 52.5427 102.266 50.2227C102.266 46.7814 103.252 44.1134 105.224 42.2187C107.196 40.324 109.883 39.3767 113.286 39.3767C116.998 39.3767 119.801 40.3627 121.696 42.3347C123.591 44.3067 124.731 47.3614 125.118 51.4987L119.55 53.0067C119.357 50.2614 118.815 48.154 117.926 46.6847C117.075 45.1767 115.529 44.4227 113.286 44.4227C111.623 44.4227 110.347 44.8674 109.458 45.7567C108.569 46.6074 108.124 47.8834 108.124 49.5847C108.124 50.9767 108.356 52.156 108.82 53.1227C109.284 54.0507 110.077 54.998 111.198 55.9647L119.144 62.9247C121.193 64.742 122.817 66.714 124.016 68.8407C125.253 70.9674 125.872 73.384 125.872 76.0907C125.872 79.532 124.828 82.258 122.74 84.2687C120.652 86.2794 117.945 87.2847 114.62 87.2847Z" fill="white"/>
</g>
</svg>
