<svg width="1008" height="756" viewBox="0 0 1008 756" fill="none" xmlns="http://www.w3.org/2000/svg">
<path d="M988.903 249.638C996.581 243.534 1008 249.244 1008 258.891V661.5C1008 713.672 965.672 756 913.5 756H94.5C42.3281 756 0 713.672 0 661.5V259.088C0 249.244 11.2219 243.731 19.0969 249.834C63.1969 284.091 121.669 327.6 322.481 473.484C364.022 503.803 434.109 567.591 504 567.197C574.284 567.788 645.75 502.622 685.716 473.484C886.528 327.6 944.803 283.894 988.903 249.638ZM504 504C549.675 504.788 615.431 446.513 648.506 422.494C909.759 232.903 929.644 216.366 989.887 169.116C1001.31 160.256 1008 146.475 1008 131.906V94.5C1008 42.3281 965.672 0 913.5 0H94.5C42.3281 0 0 42.3281 0 94.5V131.906C0 146.475 6.69375 160.059 18.1125 169.116C78.3563 216.169 98.2406 232.903 359.494 422.494C392.569 446.513 458.325 504.788 504 504Z" fill="#52AEE2"/>
</svg>
