<svg width="732" height="511" viewBox="0 0 732 511" fill="none" xmlns="http://www.w3.org/2000/svg">
<path d="M22.428 3.36996H80.99L135.191 365.956L203.098 5.23897H252.938L321.468 367.825L374.423 3.36996H431.739L350.749 508H299.663L229.264 134.2L158.242 508H104.664L22.428 3.36996Z" fill="#FF4BA2" fill-opacity="0.71"/>
<path d="M596.718 510.553C554.762 510.553 522.678 497.596 500.466 471.682C478.665 445.768 466.531 410.188 464.063 364.941L525.763 348.282C527.82 380.366 533.99 406.28 544.273 426.024C554.968 445.768 572.449 455.64 596.718 455.64C614.817 455.64 628.391 450.704 637.44 440.832C646.901 430.549 651.631 415.946 651.631 397.025C651.631 376.458 647.312 359.388 638.674 345.814C630.036 332.24 616.256 317.226 597.335 300.773L513.423 226.733C496.558 211.925 484.218 196.089 476.403 179.224C468.999 161.948 465.297 140.97 465.297 116.29C465.297 79.6813 475.786 51.2993 496.764 31.144C517.742 10.9887 546.33 0.910981 582.527 0.910981C622.015 0.910981 651.837 11.4 671.992 32.378C692.147 53.356 704.282 85.8513 708.395 129.864L649.163 145.906C647.106 116.701 641.348 94.2836 631.887 78.653C622.838 62.611 606.384 54.59 582.527 54.59C564.84 54.59 551.266 59.3203 541.805 68.781C532.344 77.8303 527.614 91.4043 527.614 109.503C527.614 124.311 530.082 136.857 535.018 147.14C539.954 157.012 548.386 167.09 560.315 177.373L644.844 251.413C666.645 270.746 683.921 291.724 696.672 314.347C709.835 336.97 716.416 362.679 716.416 391.472C716.416 428.081 705.31 457.08 683.098 478.469C660.886 499.858 632.093 510.553 596.718 510.553Z" fill="#00A3FF" fill-opacity="0.87"/>
<path d="M402.871 5.22996H595.992V55.207H472.592V221.797H568.227V271.157H472.592V505H402.871V5.22996Z" fill="#FFB800" fill-opacity="0.35"/>
</svg>
