<svg width="540" height="383" viewBox="0 0 540 383" fill="none" xmlns="http://www.w3.org/2000/svg">
<g filter="url(#filter0_d)">
<path d="M328.328 237.208C340.011 237.208 348.441 239.292 353.62 243.458C358.92 247.625 361.569 253.755 361.569 261.85V266.314C361.569 271.671 360.365 276.79 357.956 281.671C355.547 286.432 351.513 291.73 345.852 297.563L339.89 303.991C337.963 306.015 336.638 307.92 335.916 309.705C335.313 311.372 335.012 313.991 335.012 317.562V325.598H320.379V319.883C320.379 314.05 320.8 309.884 321.643 307.384C322.486 304.884 324.474 301.789 327.605 298.099L338.083 285.956C341.335 282.028 343.503 278.754 344.587 276.135C345.671 273.516 346.213 270.124 346.213 265.957V262.029C346.213 257.624 344.828 254.41 342.058 252.386C339.408 250.362 334.53 249.351 327.424 249.351C321.764 249.351 314.176 250.422 304.661 252.565V240.065C314.056 238.161 321.944 237.208 328.328 237.208ZM327.966 342.025C331.218 342.025 333.687 342.74 335.374 344.168C337.18 345.597 338.083 347.62 338.083 350.239V355.418C338.083 358.037 337.18 360.001 335.374 361.31C333.687 362.739 331.218 363.453 327.966 363.453C324.835 363.453 322.366 362.739 320.559 361.31C318.873 360.001 318.03 358.037 318.03 355.418V350.239C318.03 347.62 318.873 345.597 320.559 344.168C322.366 342.74 324.835 342.025 327.966 342.025Z" fill="#65C1FF" fill-opacity="0.79"/>
</g>
<g filter="url(#filter1_d)">
<path d="M307.672 148.841C319.054 151.192 326.845 154.935 331.045 160.072C335.363 165.232 336.7 171.79 335.057 179.745L334.151 184.132C333.064 189.396 330.852 194.184 327.515 198.496C324.202 202.691 319.196 207.085 312.497 211.678L305.384 216.796C303.096 218.397 301.419 220.002 300.352 221.611C299.427 223.128 298.602 225.641 297.878 229.15L296.247 237.047L281.99 234.103L283.15 228.487C284.333 222.755 285.59 218.745 286.918 216.458C288.247 214.171 290.811 211.53 294.611 208.533L307.284 198.709C311.249 195.503 314.026 192.722 315.613 190.366C317.201 188.011 318.417 184.786 319.263 180.691L320.06 176.831C320.954 172.502 320.257 169.065 317.969 166.519C315.798 163.997 311.251 162.022 304.328 160.592C298.813 159.453 291.203 158.979 281.498 159.171L284.035 146.887C293.574 146.906 301.453 147.557 307.672 148.841ZM286.049 251.773C289.217 252.427 291.477 253.626 292.83 255.369C294.3 257.136 294.77 259.307 294.238 261.88L293.187 266.969C292.656 269.543 291.377 271.291 289.351 272.215C287.419 273.279 284.868 273.484 281.7 272.83C278.649 272.2 276.389 271.001 274.919 269.234C273.542 267.608 273.119 265.508 273.65 262.934L274.701 257.846C275.233 255.272 276.465 253.453 278.397 252.388C280.447 251.348 282.998 251.143 286.049 251.773Z" fill="#FFDB7F"/>
</g>
<g filter="url(#filter2_d)">
<path d="M472.388 24.8026C483.77 27.1531 491.561 30.8966 495.761 36.033C500.079 41.1936 501.416 47.7514 499.773 55.7063L498.867 60.0932C497.78 65.3575 495.568 70.1454 492.231 74.4571C488.917 78.6519 483.911 83.0459 477.213 87.6392L470.1 92.7568C467.812 94.3578 466.134 95.963 465.068 97.5724C464.143 99.089 463.318 101.602 462.593 105.112L460.963 113.008L446.706 110.064L447.866 104.449C449.049 98.7164 450.306 94.7067 451.634 92.4197C452.963 90.1327 455.527 87.4909 459.327 84.4945L472 74.6703C475.965 71.4641 478.742 68.6832 480.329 66.3276C481.917 63.9721 483.133 60.7471 483.979 56.6527L484.776 52.7922C485.67 48.4638 484.973 45.0266 482.685 42.4805C480.514 39.9587 475.967 37.9829 469.044 36.5532C463.529 35.4143 455.919 34.9406 446.214 35.1319L448.751 22.8486C458.29 22.867 466.169 23.5183 472.388 24.8026ZM450.765 127.734C453.933 128.388 456.193 129.587 457.546 131.33C459.016 133.097 459.486 135.268 458.954 137.842L457.903 142.93C457.372 145.504 456.093 147.253 454.067 148.176C452.135 149.24 449.584 149.446 446.416 148.791C443.365 148.161 441.105 146.963 439.634 145.195C438.257 143.569 437.835 141.469 438.366 138.896L439.417 133.807C439.948 131.233 441.181 129.414 443.113 128.35C445.163 127.309 447.714 127.104 450.765 127.734Z" fill="#FFDB7F"/>
</g>
<g filter="url(#filter3_d)">
<path d="M153.14 214.423C164.522 216.774 172.313 220.517 176.513 225.654C180.831 230.814 182.168 237.372 180.525 245.327L179.619 249.714C178.532 254.978 176.32 259.766 172.983 264.078C169.669 268.272 164.663 272.666 157.965 277.26L150.852 282.377C148.564 283.978 146.886 285.584 145.82 287.193C144.895 288.71 144.07 291.223 143.345 294.732L141.715 302.629L127.458 299.684L128.617 294.069C129.801 288.337 131.057 284.327 132.386 282.04C133.715 279.753 136.279 277.112 140.079 274.115L152.752 264.291C156.717 261.085 159.494 258.304 161.081 255.948C162.669 253.593 163.885 250.368 164.731 246.273L165.528 242.413C166.422 238.084 165.725 234.647 163.437 232.101C161.266 229.579 156.719 227.604 149.796 226.174C144.281 225.035 136.671 224.561 126.966 224.753L129.503 212.469C139.042 212.488 146.921 213.139 153.14 214.423ZM131.516 317.355C134.685 318.009 136.945 319.208 138.298 320.951C139.768 322.718 140.238 324.889 139.706 327.462L138.655 332.551C138.124 335.125 136.845 336.873 134.819 337.796C132.887 338.861 130.336 339.066 127.168 338.412C124.117 337.782 121.857 336.583 120.386 334.816C119.009 333.19 118.587 331.09 119.118 328.516L120.169 323.428C120.7 320.854 121.933 319.035 123.865 317.97C125.915 316.93 128.466 316.725 131.516 317.355Z" fill="#65C1FF" fill-opacity="0.79"/>
</g>
<g filter="url(#filter4_d)">
<path d="M387.733 157.824C399.352 157.565 407.784 159.468 413.028 163.533C418.391 167.596 421.164 173.687 421.344 181.808L421.444 186.286C421.564 191.66 420.48 196.822 418.194 201.772C415.904 206.602 412.01 212.006 406.51 217.983L400.724 224.564C398.853 226.637 397.578 228.577 396.899 230.384C396.337 232.069 396.096 234.703 396.176 238.286L396.355 246.347L381.801 246.671L381.674 240.939C381.543 235.087 381.869 230.898 382.652 228.371C383.435 225.845 385.342 222.696 388.374 218.924L398.524 206.511C401.671 202.498 403.754 199.166 404.774 196.515C405.793 193.863 406.256 190.448 406.163 186.268L406.076 182.327C405.977 177.909 404.528 174.715 401.728 172.746C399.047 170.774 394.173 169.867 387.106 170.025C381.476 170.15 373.953 171.393 364.538 173.753L364.259 161.214C373.559 159.095 381.384 157.965 387.733 157.824ZM389.715 262.983C392.949 262.911 395.42 263.573 397.129 264.969C398.958 266.362 399.902 268.372 399.96 270.999L400.076 276.194C400.134 278.822 399.28 280.812 397.512 282.166C395.867 283.636 393.427 284.407 390.193 284.479C387.079 284.549 384.607 283.887 382.779 282.494C381.072 281.217 380.19 279.266 380.131 276.638L380.016 271.443C379.957 268.816 380.751 266.767 382.396 265.297C384.161 263.824 386.6 263.053 389.715 262.983Z" fill="#65C1FF" fill-opacity="0.79"/>
</g>
<g filter="url(#filter5_d)">
<path d="M473.659 157.912C484.642 161.713 491.884 166.432 495.385 172.068C498.999 177.743 499.478 184.419 496.821 192.095L495.356 196.328C493.598 201.408 490.785 205.87 486.919 209.714C483.092 213.445 477.56 217.156 470.324 220.845L462.609 225C460.133 226.292 458.263 227.667 456.997 229.125C455.884 230.51 454.741 232.895 453.569 236.282L450.932 243.901L437.175 239.139L439.051 233.721C440.965 228.19 442.729 224.376 444.342 222.28C445.955 220.184 448.839 217.896 452.994 215.415L466.83 207.311C471.177 204.644 474.289 202.245 476.168 200.115C478.046 197.984 479.67 194.943 481.037 190.992L482.326 187.267C483.772 183.091 483.525 179.592 481.585 176.772C479.758 173.991 475.505 171.444 468.824 169.132C463.503 167.29 456.018 165.837 446.37 164.772L450.472 152.92C459.929 154.171 467.658 155.835 473.659 157.912ZM438.916 257.186C441.973 258.244 444.06 259.725 445.176 261.628C446.406 263.571 446.591 265.784 445.731 268.267L444.032 273.177C443.172 275.661 441.678 277.229 439.55 277.883C437.496 278.689 434.94 278.563 431.883 277.505C428.939 276.486 426.853 275.005 425.623 273.063C424.468 271.272 424.32 269.135 425.18 266.652L426.879 261.742C427.739 259.258 429.196 257.614 431.25 256.808C433.417 256.041 435.972 256.167 438.916 257.186Z" fill="#65C1FF" fill-opacity="0.79"/>
</g>
<g filter="url(#filter6_d)">
<path d="M118.168 156.445C122.779 159.189 125.612 161.998 126.669 164.873C127.773 167.777 127.366 170.84 125.449 174.062L124.391 175.839C123.122 177.971 121.434 179.726 119.327 181.103C117.248 182.433 114.4 183.594 110.784 184.586L106.909 185.745C105.669 186.098 104.694 186.545 103.986 187.086C103.354 187.608 102.614 188.58 101.768 190.001L99.8644 193.2L94.0893 189.763L95.4431 187.488C96.8251 185.166 97.9786 183.606 98.9036 182.809C99.8287 182.012 101.346 181.247 103.456 180.514L110.468 178.141C112.683 177.341 114.314 176.547 115.362 175.759C116.41 174.972 117.428 173.748 118.415 172.09L119.346 170.526C120.39 168.773 120.604 167.168 119.991 165.712C119.424 164.284 117.739 162.735 114.935 161.066C112.701 159.736 109.452 158.381 105.19 156.999L108.151 152.023C112.31 153.471 115.649 154.945 118.168 156.445ZM93.1916 198.084C94.4749 198.848 95.2801 199.712 95.6071 200.677C95.9816 201.67 95.8586 202.688 95.2382 203.73L94.0113 205.792C93.3908 206.834 92.5689 207.404 91.5457 207.501C90.5418 207.673 89.3982 207.378 88.1148 206.614C86.879 205.878 86.0738 205.014 85.6993 204.021C85.3441 203.104 85.4767 202.124 86.0972 201.081L87.3241 199.02C87.9446 197.978 88.7568 197.37 89.7607 197.197C90.8121 197.053 91.9558 197.349 93.1916 198.084Z" fill="#65C1FF" fill-opacity="0.79"/>
</g>
<g filter="url(#filter7_d)">
<path d="M331.397 84.9502C339.948 83.5026 346.411 84.0061 350.785 86.4605C355.247 88.9 358.044 93.1274 359.176 99.1427L359.801 102.46C360.55 106.441 360.384 110.394 359.304 114.319C358.207 118.156 355.994 122.592 352.667 127.628L349.202 133.144C348.074 134.887 347.371 136.466 347.092 137.883C346.884 139.196 347.03 141.179 347.53 143.833L348.654 149.804L337.942 151.617L337.143 147.371C336.327 143.037 336.052 139.888 336.32 137.926C336.587 135.964 337.609 133.418 339.385 130.287L345.357 119.966C347.188 116.644 348.317 113.943 348.744 111.862C349.171 109.782 349.093 107.193 348.51 104.097L347.961 101.178C347.345 97.9051 345.881 95.6883 343.57 94.5277C341.348 93.3522 337.636 93.2046 332.434 94.0851C328.29 94.7865 322.886 96.5228 316.221 99.294L314.473 90.0056C321.083 87.4263 326.724 85.7411 331.397 84.9502ZM345.794 162.885C348.174 162.482 350.082 162.707 351.516 163.559C353.038 164.397 353.982 165.789 354.349 167.735L355.073 171.583C355.439 173.529 355.053 175.101 353.914 176.298C352.879 177.568 351.172 178.405 348.791 178.808C346.499 179.196 344.592 178.971 343.07 178.133C341.652 177.369 340.76 176.014 340.394 174.068L339.67 170.22C339.303 168.273 339.637 166.665 340.672 165.395C341.794 164.109 343.502 163.273 345.794 162.885Z" fill="#FFA3D0"/>
</g>
<g filter="url(#filter8_d)">
<path d="M178.333 275.953C186.885 274.505 193.348 275.009 197.721 277.463C202.183 279.903 204.98 284.13 206.113 290.145L206.737 293.463C207.487 297.443 207.321 301.396 206.24 305.322C205.143 309.159 202.931 313.595 199.603 318.631L196.138 324.147C195.011 325.889 194.307 327.469 194.028 328.885C193.821 330.198 193.967 332.182 194.466 334.836L195.59 340.807L184.878 342.62L184.079 338.374C183.263 334.039 182.989 330.891 183.256 328.929C183.524 326.966 184.546 324.42 186.322 321.29L192.293 310.969C194.124 307.647 195.253 304.945 195.68 302.865C196.107 300.784 196.029 298.196 195.447 295.1L194.897 292.181C194.281 288.908 192.818 286.691 190.507 285.53C188.284 284.355 184.572 284.207 179.371 285.088C175.227 285.789 169.823 287.525 163.158 290.297L161.409 281.008C168.019 278.429 173.661 276.744 178.333 275.953ZM192.731 353.887C195.111 353.484 197.018 353.709 198.452 354.562C199.974 355.399 200.919 356.791 201.285 358.737L202.009 362.585C202.376 364.532 201.989 366.103 200.85 367.3C199.816 368.571 198.108 369.407 195.728 369.81C193.436 370.198 191.528 369.973 190.006 369.136C188.589 368.371 187.697 367.016 187.331 365.07L186.606 361.222C186.24 359.276 186.574 357.668 187.608 356.397C188.731 355.112 190.438 354.275 192.731 353.887Z" fill="#FFDB7F"/>
</g>
<g filter="url(#filter9_d)">
<path d="M91.2524 263.927C99.6686 266.152 105.371 269.287 108.359 273.331C111.433 277.398 112.249 282.403 110.806 288.344L110.01 291.621C109.055 295.553 107.274 299.081 104.669 302.205C102.085 305.241 98.2335 308.361 93.1156 311.565L87.6746 315.148C85.9255 316.266 84.6315 317.412 83.7925 318.585C83.0616 319.693 82.3777 321.558 81.7409 324.18L80.3082 330.078L69.7664 327.291L70.7852 323.097C71.8252 318.815 72.8717 315.837 73.9248 314.163C74.9779 312.489 76.9614 310.595 79.8752 308.483L89.5887 301.566C92.6318 299.302 94.7772 297.312 96.025 295.596C97.2729 293.88 98.2682 291.493 99.0111 288.435L99.7115 285.551C100.497 282.318 100.072 279.695 98.4374 277.683C96.8894 275.693 93.5558 274.021 88.4367 272.668C84.3588 271.59 78.7016 270.931 71.4652 270.692L73.6938 261.518C80.801 261.908 86.6539 262.712 91.2524 263.927ZM72.3035 340.794C74.6461 341.413 76.2974 342.408 77.2574 343.777C78.3042 345.17 78.5941 346.827 78.1272 348.749L77.2039 352.55C76.7369 354.473 75.736 355.742 74.201 356.36C72.7316 357.087 70.8256 357.141 68.483 356.522C66.2271 355.925 64.5758 354.931 63.529 353.538C62.5478 352.256 62.2906 350.654 62.7576 348.732L63.6809 344.931C64.1478 343.008 65.116 341.684 66.5854 340.956C68.1416 340.252 70.0476 340.198 72.3035 340.794Z" fill="#FFA3D0"/>
</g>
<g filter="url(#filter10_d)">
<path d="M163.866 124.763C169.106 124.956 172.871 126.043 175.162 128.023C177.507 130.006 178.649 132.838 178.587 136.52L178.553 138.551C178.513 140.988 177.934 143.296 176.816 145.476C175.7 147.602 173.85 149.945 171.268 152.505L168.545 155.331C167.666 156.219 167.057 157.064 166.719 157.864C166.437 158.612 166.282 159.798 166.255 161.423L166.194 165.078L159.631 164.836L159.675 162.237C159.719 159.584 159.939 157.696 160.336 156.573C160.733 155.449 161.648 154.074 163.081 152.447L167.872 147.097C169.36 145.364 170.357 143.911 170.863 142.738C171.369 141.564 171.638 140.03 171.669 138.135L171.699 136.348C171.732 134.345 171.136 132.86 169.909 131.894C168.736 130.929 166.556 130.389 163.369 130.271C160.83 130.178 157.419 130.54 153.136 131.357L153.231 125.672C157.458 124.961 161.003 124.658 163.866 124.763ZM162.91 172.434C164.368 172.487 165.47 172.853 166.215 173.531C167.015 174.21 167.404 175.146 167.384 176.337L167.345 178.692C167.325 179.884 166.905 180.762 166.085 181.328C165.318 181.95 164.205 182.234 162.747 182.18C161.343 182.129 160.241 181.763 159.441 181.083C158.695 180.46 158.332 179.552 158.352 178.361L158.391 176.006C158.411 174.815 158.804 173.908 159.571 173.286C160.392 172.666 161.505 172.382 162.91 172.434Z" fill="#0080B7"/>
</g>
<g filter="url(#filter11_d)">
<path d="M513.2 302.547C518.439 302.74 522.204 303.827 524.495 305.808C526.84 307.79 527.982 310.623 527.921 314.305L527.887 316.335C527.846 318.772 527.267 321.08 526.15 323.261C525.034 325.387 523.184 327.73 520.601 330.289L517.879 333.115C516.999 334.004 516.391 334.848 516.053 335.648C515.77 336.396 515.615 337.583 515.588 339.207L515.527 342.862L508.965 342.62L509.008 340.021C509.052 337.368 509.273 335.48 509.67 334.357C510.067 333.234 510.982 331.859 512.414 330.232L517.205 324.882C518.693 323.149 519.69 321.695 520.196 320.522C520.702 319.349 520.971 317.814 521.003 315.919L521.033 314.132C521.066 312.129 520.469 310.644 519.242 309.678C518.069 308.714 515.889 308.173 512.703 308.056C510.164 307.962 506.753 308.324 502.47 309.142L502.564 303.456C506.792 302.745 510.337 302.442 513.2 302.547ZM512.243 350.218C513.701 350.272 514.803 350.637 515.549 351.315C516.348 351.995 516.738 352.93 516.718 354.121L516.679 356.477C516.659 357.668 516.239 358.546 515.419 359.112C514.652 359.734 513.539 360.018 512.081 359.965C510.676 359.913 509.574 359.547 508.775 358.868C508.029 358.244 507.666 357.337 507.685 356.146L507.725 353.79C507.744 352.599 508.138 351.692 508.905 351.07C509.726 350.45 510.839 350.166 512.243 350.218Z" fill="#0080B7"/>
</g>
<g filter="url(#filter12_d)">
<path d="M350.455 32.0671C354.211 31.5922 357.022 31.9266 358.886 33.0705C360.789 34.2095 361.934 36.0947 362.321 38.726L362.534 40.1772C362.79 41.9185 362.647 43.6315 362.105 45.316C361.558 46.9617 360.514 48.8478 358.972 50.974L357.362 53.306C356.839 54.0422 356.504 54.7152 356.357 55.325C356.243 55.8913 356.271 56.7549 356.442 57.9158L356.826 60.5278L352.12 61.1227L351.847 59.2652C351.569 57.3691 351.505 55.9975 351.657 55.1506C351.808 54.3037 352.3 53.2168 353.13 51.8899L355.92 47.5169C356.778 46.1077 357.319 44.9554 357.542 44.06C357.766 43.1646 357.778 42.0397 357.579 40.6853L357.391 39.4083C357.181 37.9765 356.582 36.988 355.595 36.4428C354.646 35.8927 353.029 35.762 350.744 36.0509C348.924 36.281 346.535 36.9377 343.578 38.0211L342.981 33.9579C345.911 32.9569 348.402 32.3266 350.455 32.0671ZM355.345 66.1544C356.39 66.0222 357.218 66.154 357.829 66.5498C358.478 66.9407 358.865 67.5619 358.99 68.4132L359.237 70.0965C359.362 70.9478 359.166 71.6231 358.647 72.1222C358.173 72.6551 357.414 72.9876 356.368 73.1198C355.361 73.2471 354.533 73.1153 353.884 72.7244C353.279 72.3673 352.914 71.763 352.789 70.9117L352.542 69.2284C352.417 68.3771 352.591 67.6849 353.065 67.152C353.578 66.6142 354.338 66.2817 355.345 66.1544Z" fill="#FFA3D0"/>
</g>
<g filter="url(#filter13_d)">
<path d="M473.982 259.447C477.739 258.973 480.55 259.307 482.414 260.451C484.317 261.59 485.462 263.475 485.848 266.106L486.062 267.558C486.318 269.299 486.175 271.012 485.633 272.696C485.086 274.342 484.042 276.228 482.5 278.354L480.89 280.686C480.367 281.423 480.032 282.096 479.885 282.705C479.771 283.272 479.799 284.135 479.97 285.296L480.353 287.908L475.648 288.503L475.375 286.646C475.096 284.749 475.033 283.378 475.185 282.531C475.336 281.684 475.828 280.597 476.658 279.27L479.448 274.897C480.306 273.488 480.847 272.336 481.07 271.44C481.293 270.545 481.306 269.42 481.107 268.066L480.919 266.789C480.709 265.357 480.11 264.368 479.122 263.823C478.174 263.273 476.557 263.142 474.272 263.431C472.452 263.661 470.063 264.318 467.106 265.401L466.509 261.338C469.439 260.337 471.93 259.707 473.982 259.447ZM478.872 293.535C479.918 293.403 480.746 293.534 481.357 293.93C482.006 294.321 482.393 294.942 482.518 295.794L482.765 297.477C482.89 298.328 482.694 299.003 482.175 299.503C481.701 300.035 480.941 300.368 479.896 300.5C478.889 300.627 478.061 300.496 477.412 300.105C476.807 299.748 476.442 299.143 476.317 298.292L476.07 296.609C475.945 295.757 476.119 295.065 476.593 294.532C477.106 293.995 477.865 293.662 478.872 293.535Z" fill="#FFA3D0"/>
</g>
<g filter="url(#filter14_d)">
<path d="M409.87 289.349C413.627 288.874 416.437 289.209 418.302 290.352C420.205 291.491 421.35 293.377 421.736 296.008L421.949 297.459C422.205 299.201 422.062 300.913 421.521 302.598C420.974 304.244 419.929 306.13 418.388 308.256L416.778 310.588C416.255 311.324 415.92 311.997 415.773 312.607C415.659 313.173 415.687 314.037 415.857 315.198L416.241 317.81L411.536 318.405L411.263 316.547C410.984 314.651 410.921 313.28 411.072 312.433C411.224 311.586 411.715 310.499 412.546 309.172L415.335 304.799C416.193 303.39 416.734 302.237 416.958 301.342C417.181 300.447 417.193 299.322 416.994 297.967L416.807 296.69C416.596 295.259 415.998 294.27 415.01 293.725C414.061 293.175 412.445 293.044 410.16 293.333C408.339 293.563 405.951 294.22 402.993 295.303L402.396 291.24C405.326 290.239 407.817 289.609 409.87 289.349ZM414.76 323.436C415.806 323.304 416.634 323.436 417.244 323.832C417.893 324.223 418.281 324.844 418.406 325.695L418.653 327.378C418.778 328.23 418.581 328.905 418.063 329.404C417.589 329.937 416.829 330.27 415.784 330.402C414.777 330.529 413.949 330.397 413.299 330.006C412.695 329.649 412.33 329.045 412.205 328.194L411.957 326.51C411.832 325.659 412.007 324.967 412.481 324.434C412.993 323.896 413.753 323.564 414.76 323.436Z" fill="#FFA3D0"/>
</g>
<g filter="url(#filter15_d)">
<path d="M101.286 10.141C109.556 7.42409 116.046 6.94823 120.754 8.71339C125.548 10.4505 128.957 14.2038 130.982 19.9732L132.099 23.1549C133.439 26.9729 133.866 30.9013 133.382 34.9401C132.868 38.894 131.337 43.6079 128.789 49.0817L126.176 55.0498C125.318 56.9403 124.857 58.6059 124.792 60.0466C124.782 61.3745 125.224 63.3111 126.117 65.8564L128.127 71.5834L117.768 74.9865L116.339 70.914C114.88 66.7566 114.136 63.689 114.107 61.7112C114.079 59.7334 114.712 57.0653 116.005 53.7069L120.386 42.616C121.705 39.0599 122.421 36.2225 122.533 34.1038C122.646 31.9852 122.181 29.4411 121.138 26.4715L120.156 23.6717C119.054 20.5324 117.27 18.5637 114.802 17.7656C112.42 16.9394 108.714 17.3526 103.684 19.0052C99.6764 20.3216 94.5729 22.8498 88.3732 26.5897L85.2466 17.681C91.4206 14.1388 96.767 11.6255 101.286 10.141ZM127.249 84.9304C129.551 84.1742 131.477 84.1091 133.028 84.7351C134.665 85.3331 135.81 86.5654 136.465 88.4319L137.761 92.1227C138.416 93.9892 138.268 95.5992 137.316 96.9527C136.48 98.3629 134.911 99.4462 132.609 100.202C130.392 100.931 128.465 100.996 126.829 100.398C125.308 99.8566 124.22 98.6528 123.565 96.7862L122.269 93.0954C121.614 91.2289 121.705 89.5905 122.541 88.1802C123.463 86.7419 125.032 85.6587 127.249 84.9304Z" fill="#FFA3D0"/>
</g>
<g filter="url(#filter16_d)">
<path d="M249.805 149.683C258.095 148.955 264.168 149.93 268.023 152.609C271.964 155.28 274.109 159.532 274.459 165.364L274.652 168.58C274.883 172.439 274.25 176.201 272.752 179.868C271.248 183.448 268.614 187.516 264.849 192.071L260.896 197.073C259.616 198.651 258.758 200.106 258.322 201.437C257.967 202.676 257.866 204.581 258.021 207.154L258.368 212.943L247.983 213.854L247.736 209.738C247.484 205.536 247.603 202.508 248.094 200.655C248.584 198.801 249.86 196.447 251.923 193.594L258.834 184.193C260.972 181.161 262.369 178.667 263.025 176.713C263.681 174.759 263.919 172.281 263.739 169.279L263.57 166.449C263.379 163.276 262.257 161.047 260.204 159.762C258.236 158.469 254.731 158.044 249.689 158.487C245.672 158.839 240.333 160.084 233.674 162.221L233.134 153.216C239.718 151.258 245.275 150.081 249.805 149.683ZM254.078 225.216C256.385 225.014 258.168 225.374 259.427 226.299C260.77 227.215 261.499 228.617 261.612 230.503L261.836 234.234C261.949 236.121 261.393 237.592 260.167 238.648C259.033 239.782 257.311 240.45 255.004 240.653C252.781 240.848 250.998 240.488 249.655 239.571C248.402 238.733 247.718 237.37 247.605 235.484L247.381 231.753C247.268 229.866 247.779 228.356 248.914 227.222C250.134 226.08 251.856 225.412 254.078 225.216Z" fill="#FFDB7F"/>
</g>
<g filter="url(#filter17_d)">
<path d="M387.795 57.2271C395.109 53.2564 401.067 51.7316 405.671 52.6527C410.349 53.5329 414.011 56.5777 416.655 61.7872L418.113 64.66C419.863 68.1075 420.781 71.811 420.867 75.7708C420.915 79.6538 420.119 84.4343 418.48 90.1122L416.848 96.2754C416.302 98.2327 416.095 99.9088 416.226 101.304C416.393 102.581 417.06 104.368 418.227 106.667L420.852 111.838L411.69 116.812L409.824 113.134C407.918 109.38 406.821 106.556 406.532 104.66C406.244 102.765 406.477 100.098 407.232 96.6586L409.826 85.283C410.578 81.6497 410.866 78.8061 410.689 76.7522C410.512 74.6984 409.744 72.3308 408.383 69.6495L407.099 67.1213C405.661 64.2868 403.744 62.6891 401.348 62.3282C399.028 61.9264 395.644 62.9331 391.195 65.3483C387.651 67.2723 383.251 70.5407 377.994 75.1536L373.911 67.1096C379.17 62.6908 383.798 59.3967 387.795 57.2271ZM421.807 124.805C423.843 123.7 425.622 123.32 427.144 123.666C428.741 123.972 429.968 124.967 430.824 126.652L432.515 129.985C433.371 131.67 433.447 133.241 432.743 134.698C432.154 136.19 430.842 137.489 428.806 138.595C426.845 139.659 425.066 140.038 423.469 139.733C421.985 139.464 420.816 138.486 419.961 136.801L418.269 133.468C417.414 131.783 417.28 130.194 417.869 128.701C418.534 127.168 419.846 125.869 421.807 124.805Z" fill="#4F91D9"/>
</g>
<g filter="url(#filter18_d)">
<path d="M209.014 107.765C217.281 108.729 223.031 110.912 226.264 114.315C229.583 117.729 230.825 122.326 229.988 128.108L229.526 131.296C228.972 135.123 227.591 138.679 225.382 141.967C223.185 145.169 219.783 148.62 215.174 152.32L210.291 156.419C208.719 157.706 207.584 158.957 206.888 160.173C206.29 161.313 205.806 163.159 205.437 165.71L204.606 171.449L194.252 170.242L194.843 166.161C195.446 161.995 196.175 159.053 197.03 157.337C197.885 155.621 199.611 153.575 202.208 151.197L210.878 143.389C213.585 140.851 215.457 138.692 216.495 136.91C217.532 135.129 218.267 132.751 218.697 129.775L219.104 126.969C219.559 123.823 218.911 121.413 217.16 119.739C215.495 118.075 212.148 116.95 207.12 116.363C203.114 115.896 197.635 116.036 190.681 116.781L191.973 107.854C198.817 107.268 204.498 107.239 209.014 107.765ZM197.923 182.602C200.224 182.87 201.897 183.584 202.942 184.743C204.073 185.913 204.503 187.433 204.232 189.303L203.697 193.002C203.426 194.873 202.584 196.201 201.17 196.987C199.829 197.869 198.008 198.175 195.707 197.907C193.492 197.649 191.819 196.935 190.688 195.765C189.63 194.691 189.237 193.218 189.507 191.348L190.043 187.649C190.314 185.779 191.119 184.403 192.46 183.521C193.886 182.65 195.707 182.344 197.923 182.602Z" fill="#4F91D9"/>
</g>
<g filter="url(#filter19_d)">
<path d="M75.5006 224.674C80.1764 223.192 83.7948 222.975 86.3558 224.022C88.9651 225.054 90.744 227.224 91.6927 230.534L92.2159 232.359C92.8437 234.55 92.9615 236.795 92.5694 239.096C92.1634 241.349 91.1694 244.026 89.5874 247.129L87.9547 250.513C87.4206 251.585 87.1136 252.532 87.0336 253.354C86.9879 254.112 87.1743 255.221 87.5929 256.681L88.5345 259.966L82.6778 261.822L82.0082 259.485C81.3246 257.1 81.005 255.343 81.0494 254.214C81.0939 253.085 81.5265 251.568 82.3473 249.662L85.1181 243.369C85.9592 241.35 86.4432 239.737 86.5701 238.528C86.697 237.32 86.5163 235.864 86.0281 234.161L85.5677 232.554C85.0515 230.753 84.1205 229.615 82.7746 229.139C81.477 228.647 79.4061 228.852 76.5621 229.753C74.2965 230.471 71.3853 231.871 67.8283 233.954L66.3635 228.843C69.9001 226.873 72.9459 225.483 75.5006 224.674ZM87.6399 267.577C88.9414 267.164 90.0132 267.143 90.8555 267.513C91.746 267.868 92.3447 268.581 92.6516 269.652L93.2585 271.769C93.5654 272.84 93.434 273.758 92.8644 274.522C92.357 275.32 91.4525 275.925 90.151 276.338C88.8977 276.735 87.8259 276.756 86.9354 276.401C86.1071 276.079 85.5395 275.383 85.2325 274.312L84.6257 272.195C84.3188 271.124 84.419 270.19 84.9265 269.392C85.4821 268.579 86.3866 267.974 87.6399 267.577Z" fill="#4F91D9"/>
</g>
<g filter="url(#filter20_d)">
<path d="M506.86 171.394C511.535 169.912 515.154 169.695 517.715 170.742C520.324 171.774 522.103 173.944 523.052 177.254L523.575 179.079C524.203 181.27 524.32 183.515 523.928 185.816C523.522 188.069 522.528 190.746 520.946 193.849L519.314 197.233C518.779 198.305 518.472 199.252 518.393 200.074C518.347 200.832 518.533 201.941 518.952 203.401L519.893 206.686L514.037 208.542L513.367 206.205C512.683 203.82 512.364 202.063 512.408 200.934C512.453 199.805 512.885 198.288 513.706 196.382L516.477 190.089C517.318 188.07 517.802 186.457 517.929 185.248C518.056 184.04 517.875 182.584 517.387 180.881L516.927 179.274C516.41 177.473 515.479 176.335 514.134 175.859C512.836 175.367 510.765 175.572 507.921 176.473C505.655 177.191 502.744 178.591 499.187 180.674L497.722 175.563C501.259 173.593 504.305 172.203 506.86 171.394ZM518.999 214.297C520.3 213.884 521.372 213.863 522.214 214.233C523.105 214.588 523.704 215.301 524.01 216.372L524.617 218.489C524.924 219.56 524.793 220.478 524.223 221.242C523.716 222.04 522.811 222.645 521.51 223.058C520.257 223.455 519.185 223.476 518.294 223.121C517.466 222.799 516.898 222.103 516.591 221.032L515.985 218.915C515.678 217.844 515.778 216.91 516.285 216.112C516.841 215.299 517.745 214.694 518.999 214.297Z" fill="#4F91D9"/>
</g>
<g filter="url(#filter21_d)">
<path d="M221.584 254.138C227.247 254.36 231.264 255.542 233.638 257.683C236.07 259.827 237.152 262.883 236.887 266.852L236.74 269.041C236.564 271.668 235.812 274.155 234.485 276.502C233.161 278.791 231.031 281.312 228.096 284.064L224.995 287.103C223.995 288.058 223.29 288.967 222.881 289.829C222.535 290.635 222.303 291.913 222.185 293.664L221.922 297.604L214.829 297.326L215.017 294.524C215.208 291.664 215.549 289.629 216.04 288.42C216.531 287.21 217.596 285.73 219.234 283.98L224.712 278.226C226.417 276.361 227.575 274.797 228.187 273.534C228.798 272.27 229.172 270.617 229.309 268.574L229.438 266.648C229.583 264.488 229.017 262.886 227.741 261.841C226.523 260.799 224.192 260.21 220.748 260.075C218.004 259.967 214.291 260.348 209.609 261.218L210.019 255.089C214.635 254.334 218.49 254.017 221.584 254.138ZM217.967 305.525C219.543 305.587 220.717 305.984 221.487 306.716C222.316 307.451 222.687 308.461 222.601 309.745L222.431 312.284C222.345 313.568 221.843 314.514 220.924 315.121C220.06 315.79 218.84 316.093 217.264 316.031C215.746 315.972 214.573 315.575 213.744 314.84C212.97 314.166 212.625 313.187 212.711 311.903L212.881 309.364C212.967 308.079 213.443 307.103 214.307 306.435C215.229 305.769 216.449 305.465 217.967 305.525Z" fill="#4F91D9"/>
</g>
<g filter="url(#filter22_d)">
<path d="M69.0614 67.4735C77.1396 69.4747 82.5675 72.3677 85.345 76.1524C88.2058 79.9577 88.8556 84.6752 87.2944 90.3049L86.4334 93.4095C85.4003 97.135 83.5803 100.489 80.9734 103.47C78.3894 106.369 74.5779 109.362 69.5387 112.449L64.1766 115.899C62.4538 116.976 61.1703 118.074 60.3263 119.192C59.5885 120.248 58.8752 122.017 58.1864 124.501L56.6367 130.089L46.5181 127.583L47.6201 123.609C48.7451 119.552 49.8402 116.727 50.9053 115.133C51.9703 113.538 53.9414 111.726 56.8184 109.696L66.4056 103.047C69.4118 100.872 71.5422 98.9663 72.7968 97.3306C74.0514 95.695 75.0805 93.4283 75.8841 90.5307L76.6417 87.7987C77.4912 84.7355 77.1533 82.2629 75.6282 80.381C74.1863 78.5197 71.0086 76.9805 66.095 75.7633C62.1809 74.7936 56.7276 74.239 49.7352 74.0994L52.1458 65.4066C59.009 65.6911 64.6476 66.3801 69.0614 67.4735ZM48.5965 140.307C50.8451 140.864 52.4146 141.784 53.305 143.066C54.2787 144.369 54.513 145.931 54.0079 147.753L53.0092 151.354C52.5041 153.175 51.5007 154.387 49.999 154.988C48.5575 155.692 46.7125 155.766 44.464 155.209C42.2987 154.673 40.7292 153.753 39.7555 152.45C38.8421 151.251 38.6379 149.74 39.143 147.919L40.1417 144.318C40.6468 142.496 41.6201 141.233 43.0615 140.529C44.5862 139.845 46.4312 139.771 48.5965 140.307Z" fill="#4F91D9"/>
</g>
<g filter="url(#filter23_d)">
<path d="M250.014 53.8482C258.295 54.677 264.079 56.7664 267.368 60.1164C270.742 63.4749 272.058 68.0515 271.316 73.8462L270.906 77.0419C270.415 80.8766 269.092 84.4555 266.937 87.7785C264.793 91.0163 261.447 94.5222 256.899 98.2963L252.084 102.475C250.532 103.787 249.419 105.057 248.743 106.284C248.163 107.434 247.709 109.287 247.382 111.844L246.645 117.596L236.272 116.558L236.796 112.467C237.331 108.292 238.012 105.339 238.839 103.609C239.666 101.88 241.358 99.8049 243.917 97.3853L252.458 89.4366C255.123 86.8551 256.96 84.6654 257.968 82.8675C258.977 81.0697 259.672 78.6794 260.054 75.6969L260.415 72.8847C260.819 69.7317 260.132 67.3326 258.354 65.6874C256.661 64.0507 253.296 62.9804 248.26 62.4763C244.247 62.0747 238.77 62.3034 231.83 63.1623L232.976 54.2145C239.81 53.5175 245.489 53.3954 250.014 53.8482ZM240.144 128.856C242.449 129.087 244.133 129.773 245.198 130.915C246.347 132.066 246.802 133.579 246.562 135.454L246.087 139.161C245.846 141.035 245.026 142.377 243.625 143.186C242.299 144.089 240.484 144.426 238.179 144.195C235.959 143.973 234.274 143.286 233.125 142.136C232.05 141.079 231.632 139.613 231.872 137.738L232.347 134.031C232.588 132.156 233.371 130.767 234.697 129.864C236.109 128.97 237.924 128.634 240.144 128.856Z" fill="#78C1F2"/>
</g>
<g filter="url(#filter24_d)">
<path d="M95.4813 119.43C103.762 120.259 109.547 122.348 112.836 125.698C116.21 129.056 117.526 133.633 116.784 139.428L116.374 142.623C115.883 146.458 114.56 150.037 112.405 153.36C110.26 156.598 106.915 160.104 102.367 163.878L97.5517 168.057C96.0002 169.369 94.8864 170.638 94.2104 171.865C93.6307 173.015 93.1771 174.869 92.8495 177.425L92.1125 183.177L81.7399 182.139L82.264 178.049C82.799 173.873 83.4799 170.921 84.3068 169.191C85.1337 167.461 86.8262 165.386 89.3843 162.967L97.9253 155.018C100.591 152.437 102.428 150.247 103.436 148.449C104.445 146.651 105.14 144.261 105.522 141.278L105.882 138.466C106.286 135.313 105.599 132.914 103.822 131.269C102.129 129.632 98.7642 128.562 93.7273 128.058C89.7149 127.656 84.2382 127.885 77.2974 128.744L78.4438 119.796C85.2774 119.099 90.9566 118.977 95.4813 119.43ZM85.6116 194.437C87.9166 194.668 89.6012 195.355 90.6654 196.497C91.8149 197.648 92.2696 199.16 92.0294 201.035L91.5544 204.742C91.3142 206.617 90.4938 207.959 89.0931 208.768C87.7669 209.671 85.9513 210.007 83.6463 209.776C81.4266 209.554 79.742 208.868 78.5925 207.717C77.5174 206.66 77.0999 205.194 77.3401 203.319L77.8151 199.613C78.0553 197.738 78.8385 196.349 80.1647 195.446C81.5763 194.551 83.3919 194.215 85.6116 194.437Z" fill="#FFDB7F"/>
</g>
<g filter="url(#filter25_d)">
<path d="M199.62 29.4868C207.562 31.9732 212.805 35.1894 215.348 39.1353C217.973 43.1068 218.336 47.855 216.437 53.3798L215.39 56.4266C214.133 60.0828 212.114 63.3201 209.331 66.1386C206.577 68.8758 202.591 71.6326 197.374 74.409L191.813 77.5275C190.028 78.4986 188.681 79.5166 187.77 80.5815C186.97 81.5908 186.151 83.3142 185.313 85.7516L183.428 91.2358L173.48 88.1214L174.82 84.2215C176.189 80.2404 177.453 77.4864 178.612 75.9596C179.772 74.4329 181.849 72.7434 184.844 70.8912L194.816 64.834C197.948 62.8449 200.19 61.072 201.541 59.5153C202.893 57.9585 204.057 55.7583 205.034 52.9146L205.956 50.2335C206.989 47.2273 206.802 44.7388 205.393 42.7681C204.067 40.8229 200.988 39.0942 196.157 37.5818C192.309 36.3771 186.899 35.4934 179.928 34.9308L182.86 26.3999C189.694 27.0993 195.28 28.1283 199.62 29.4868ZM174.784 100.948C176.995 101.641 178.506 102.654 179.317 103.987C180.21 105.347 180.349 106.92 179.735 108.708L178.52 112.242C177.906 114.029 176.831 115.178 175.296 115.687C173.814 116.303 171.968 116.265 169.757 115.573C167.628 114.907 166.118 113.894 165.224 112.534C164.385 111.282 164.273 109.762 164.887 107.974L166.102 104.44C166.717 102.652 167.765 101.451 169.246 100.834C170.809 100.244 172.655 100.282 174.784 100.948Z" fill="#4F91D9"/>
</g>
<defs>
<filter id="filter0_d" x="295.661" y="232.208" width="74.9083" height="144.245" filterUnits="userSpaceOnUse" color-interpolation-filters="sRGB">
<feFlood flood-opacity="0" result="BackgroundImageFix"/>
<feColorMatrix in="SourceAlpha" type="matrix" values="0 0 0 0 0 0 0 0 0 0 0 0 0 0 0 0 0 0 127 0"/>
<feOffset dy="4"/>
<feGaussianBlur stdDeviation="4.5"/>
<feColorMatrix type="matrix" values="0 0 0 0 0 0 0 0 0 0 0 0 0 0 0 0 0 0 0.25 0"/>
<feBlend mode="normal" in2="BackgroundImageFix" result="effect1_dropShadow"/>
<feBlend mode="normal" in="SourceGraphic" in2="effect1_dropShadow" result="shape"/>
</filter>
<filter id="filter1_d" x="249.995" y="139.08" width="99.0633" height="153.511" filterUnits="userSpaceOnUse" color-interpolation-filters="sRGB">
<feFlood flood-opacity="0" result="BackgroundImageFix"/>
<feColorMatrix in="SourceAlpha" type="matrix" values="0 0 0 0 0 0 0 0 0 0 0 0 0 0 0 0 0 0 127 0"/>
<feOffset dy="4"/>
<feGaussianBlur stdDeviation="4.5"/>
<feColorMatrix type="matrix" values="0 0 0 0 0 0 0 0 0 0 0 0 0 0 0 0 0 0 0.25 0"/>
<feBlend mode="normal" in2="BackgroundImageFix" result="effect1_dropShadow"/>
<feBlend mode="normal" in="SourceGraphic" in2="effect1_dropShadow" result="shape"/>
</filter>
<filter id="filter2_d" x="414.71" y="15.041" width="99.0633" height="153.511" filterUnits="userSpaceOnUse" color-interpolation-filters="sRGB">
<feFlood flood-opacity="0" result="BackgroundImageFix"/>
<feColorMatrix in="SourceAlpha" type="matrix" values="0 0 0 0 0 0 0 0 0 0 0 0 0 0 0 0 0 0 127 0"/>
<feOffset dy="4"/>
<feGaussianBlur stdDeviation="4.5"/>
<feColorMatrix type="matrix" values="0 0 0 0 0 0 0 0 0 0 0 0 0 0 0 0 0 0 0.25 0"/>
<feBlend mode="normal" in2="BackgroundImageFix" result="effect1_dropShadow"/>
<feBlend mode="normal" in="SourceGraphic" in2="effect1_dropShadow" result="shape"/>
</filter>
<filter id="filter3_d" x="95.4624" y="204.662" width="99.0633" height="153.511" filterUnits="userSpaceOnUse" color-interpolation-filters="sRGB">
<feFlood flood-opacity="0" result="BackgroundImageFix"/>
<feColorMatrix in="SourceAlpha" type="matrix" values="0 0 0 0 0 0 0 0 0 0 0 0 0 0 0 0 0 0 127 0"/>
<feOffset dy="4"/>
<feGaussianBlur stdDeviation="4.5"/>
<feColorMatrix type="matrix" values="0 0 0 0 0 0 0 0 0 0 0 0 0 0 0 0 0 0 0.25 0"/>
<feBlend mode="normal" in2="BackgroundImageFix" result="effect1_dropShadow"/>
<feBlend mode="normal" in="SourceGraphic" in2="effect1_dropShadow" result="shape"/>
</filter>
<filter id="filter4_d" x="355.195" y="152.088" width="77.4189" height="145.908" filterUnits="userSpaceOnUse" color-interpolation-filters="sRGB">
<feFlood flood-opacity="0" result="BackgroundImageFix"/>
<feColorMatrix in="SourceAlpha" type="matrix" values="0 0 0 0 0 0 0 0 0 0 0 0 0 0 0 0 0 0 127 0"/>
<feOffset dy="4"/>
<feGaussianBlur stdDeviation="4.5"/>
<feColorMatrix type="matrix" values="0 0 0 0 0 0 0 0 0 0 0 0 0 0 0 0 0 0 0.25 0"/>
<feBlend mode="normal" in2="BackgroundImageFix" result="effect1_dropShadow"/>
<feBlend mode="normal" in="SourceGraphic" in2="effect1_dropShadow" result="shape"/>
</filter>
<filter id="filter5_d" x="400.974" y="145.211" width="112.935" height="156.229" filterUnits="userSpaceOnUse" color-interpolation-filters="sRGB">
<feFlood flood-opacity="0" result="BackgroundImageFix"/>
<feColorMatrix in="SourceAlpha" type="matrix" values="0 0 0 0 0 0 0 0 0 0 0 0 0 0 0 0 0 0 127 0"/>
<feOffset dy="4"/>
<feGaussianBlur stdDeviation="4.5"/>
<feColorMatrix type="matrix" values="0 0 0 0 0 0 0 0 0 0 0 0 0 0 0 0 0 0 0.25 0"/>
<feBlend mode="normal" in2="BackgroundImageFix" result="effect1_dropShadow"/>
<feBlend mode="normal" in="SourceGraphic" in2="effect1_dropShadow" result="shape"/>
</filter>
<filter id="filter6_d" x="69.9175" y="145.886" width="70.3694" height="81.6214" filterUnits="userSpaceOnUse" color-interpolation-filters="sRGB">
<feFlood flood-opacity="0" result="BackgroundImageFix"/>
<feColorMatrix in="SourceAlpha" type="matrix" values="0 0 0 0 0 0 0 0 0 0 0 0 0 0 0 0 0 0 127 0"/>
<feOffset dy="4"/>
<feGaussianBlur stdDeviation="4.5"/>
<feColorMatrix type="matrix" values="0 0 0 0 0 0 0 0 0 0 0 0 0 0 0 0 0 0 0.25 0"/>
<feBlend mode="normal" in2="BackgroundImageFix" result="effect1_dropShadow"/>
<feBlend mode="normal" in="SourceGraphic" in2="effect1_dropShadow" result="shape"/>
</filter>
<filter id="filter7_d" x="305.473" y="79.1447" width="63.7883" height="112.847" filterUnits="userSpaceOnUse" color-interpolation-filters="sRGB">
<feFlood flood-opacity="0" result="BackgroundImageFix"/>
<feColorMatrix in="SourceAlpha" type="matrix" values="0 0 0 0 0 0 0 0 0 0 0 0 0 0 0 0 0 0 127 0"/>
<feOffset dy="4"/>
<feGaussianBlur stdDeviation="4.5"/>
<feColorMatrix type="matrix" values="0 0 0 0 0 0 0 0 0 0 0 0 0 0 0 0 0 0 0.25 0"/>
<feBlend mode="normal" in2="BackgroundImageFix" result="effect1_dropShadow"/>
<feBlend mode="normal" in="SourceGraphic" in2="effect1_dropShadow" result="shape"/>
</filter>
<filter id="filter8_d" x="152.409" y="270.147" width="63.7883" height="112.847" filterUnits="userSpaceOnUse" color-interpolation-filters="sRGB">
<feFlood flood-opacity="0" result="BackgroundImageFix"/>
<feColorMatrix in="SourceAlpha" type="matrix" values="0 0 0 0 0 0 0 0 0 0 0 0 0 0 0 0 0 0 127 0"/>
<feOffset dy="4"/>
<feGaussianBlur stdDeviation="4.5"/>
<feColorMatrix type="matrix" values="0 0 0 0 0 0 0 0 0 0 0 0 0 0 0 0 0 0 0.25 0"/>
<feBlend mode="normal" in2="BackgroundImageFix" result="effect1_dropShadow"/>
<feBlend mode="normal" in="SourceGraphic" in2="effect1_dropShadow" result="shape"/>
</filter>
<filter id="filter9_d" x="28.0259" y="251.185" width="98.9519" height="123.254" filterUnits="userSpaceOnUse" color-interpolation-filters="sRGB">
<feFlood flood-opacity="0" result="BackgroundImageFix"/>
<feColorMatrix in="SourceAlpha" type="matrix" values="0 0 0 0 0 0 0 0 0 0 0 0 0 0 0 0 0 0 127 0"/>
<feOffset dy="4"/>
<feGaussianBlur stdDeviation="4.5"/>
<feColorMatrix type="matrix" values="0 0 0 0 0 0 0 0 0 0 0 0 0 0 0 0 0 0 0.25 0"/>
<feBlend mode="normal" in2="BackgroundImageFix" result="effect1_dropShadow"/>
<feBlend mode="normal" in="SourceGraphic" in2="effect1_dropShadow" result="shape"/>
</filter>
<filter id="filter10_d" x="133.405" y="117.219" width="56.6485" height="79.4718" filterUnits="userSpaceOnUse" color-interpolation-filters="sRGB">
<feFlood flood-opacity="0" result="BackgroundImageFix"/>
<feColorMatrix in="SourceAlpha" type="matrix" values="0 0 0 0 0 0 0 0 0 0 0 0 0 0 0 0 0 0 127 0"/>
<feOffset dy="4"/>
<feGaussianBlur stdDeviation="4.5"/>
<feColorMatrix type="matrix" values="0 0 0 0 0 0 0 0 0 0 0 0 0 0 0 0 0 0 0.25 0"/>
<feBlend mode="normal" in2="BackgroundImageFix" result="effect1_dropShadow"/>
<feBlend mode="normal" in="SourceGraphic" in2="effect1_dropShadow" result="shape"/>
</filter>
<filter id="filter11_d" x="482.739" y="295.004" width="56.6485" height="79.4718" filterUnits="userSpaceOnUse" color-interpolation-filters="sRGB">
<feFlood flood-opacity="0" result="BackgroundImageFix"/>
<feColorMatrix in="SourceAlpha" type="matrix" values="0 0 0 0 0 0 0 0 0 0 0 0 0 0 0 0 0 0 127 0"/>
<feOffset dy="4"/>
<feGaussianBlur stdDeviation="4.5"/>
<feColorMatrix type="matrix" values="0 0 0 0 0 0 0 0 0 0 0 0 0 0 0 0 0 0 0.25 0"/>
<feBlend mode="normal" in2="BackgroundImageFix" result="effect1_dropShadow"/>
<feBlend mode="normal" in="SourceGraphic" in2="effect1_dropShadow" result="shape"/>
</filter>
<filter id="filter12_d" x="332.393" y="26.4138" width="39.6691" height="59.9917" filterUnits="userSpaceOnUse" color-interpolation-filters="sRGB">
<feFlood flood-opacity="0" result="BackgroundImageFix"/>
<feColorMatrix in="SourceAlpha" type="matrix" values="0 0 0 0 0 0 0 0 0 0 0 0 0 0 0 0 0 0 127 0"/>
<feOffset dy="4"/>
<feGaussianBlur stdDeviation="4.5"/>
<feColorMatrix type="matrix" values="0 0 0 0 0 0 0 0 0 0 0 0 0 0 0 0 0 0 0.25 0"/>
<feBlend mode="normal" in2="BackgroundImageFix" result="effect1_dropShadow"/>
<feBlend mode="normal" in="SourceGraphic" in2="effect1_dropShadow" result="shape"/>
</filter>
<filter id="filter13_d" x="455.92" y="253.794" width="39.6691" height="59.9917" filterUnits="userSpaceOnUse" color-interpolation-filters="sRGB">
<feFlood flood-opacity="0" result="BackgroundImageFix"/>
<feColorMatrix in="SourceAlpha" type="matrix" values="0 0 0 0 0 0 0 0 0 0 0 0 0 0 0 0 0 0 127 0"/>
<feOffset dy="4"/>
<feGaussianBlur stdDeviation="4.5"/>
<feColorMatrix type="matrix" values="0 0 0 0 0 0 0 0 0 0 0 0 0 0 0 0 0 0 0.25 0"/>
<feBlend mode="normal" in2="BackgroundImageFix" result="effect1_dropShadow"/>
<feBlend mode="normal" in="SourceGraphic" in2="effect1_dropShadow" result="shape"/>
</filter>
<filter id="filter14_d" x="391.808" y="283.696" width="39.6691" height="59.9917" filterUnits="userSpaceOnUse" color-interpolation-filters="sRGB">
<feFlood flood-opacity="0" result="BackgroundImageFix"/>
<feColorMatrix in="SourceAlpha" type="matrix" values="0 0 0 0 0 0 0 0 0 0 0 0 0 0 0 0 0 0 127 0"/>
<feOffset dy="4"/>
<feGaussianBlur stdDeviation="4.5"/>
<feColorMatrix type="matrix" values="0 0 0 0 0 0 0 0 0 0 0 0 0 0 0 0 0 0 0.25 0"/>
<feBlend mode="normal" in2="BackgroundImageFix" result="effect1_dropShadow"/>
<feBlend mode="normal" in="SourceGraphic" in2="effect1_dropShadow" result="shape"/>
</filter>
<filter id="filter15_d" x="75.3687" y="0" width="77.6509" height="118.551" filterUnits="userSpaceOnUse" color-interpolation-filters="sRGB">
<feFlood flood-opacity="0" result="BackgroundImageFix"/>
<feColorMatrix in="SourceAlpha" type="matrix" values="0 0 0 0 0 0 0 0 0 0 0 0 0 0 0 0 0 0 127 0"/>
<feOffset dy="4"/>
<feGaussianBlur stdDeviation="4.5"/>
<feColorMatrix type="matrix" values="0 0 0 0 0 0 0 0 0 0 0 0 0 0 0 0 0 0 0.25 0"/>
<feBlend mode="normal" in2="BackgroundImageFix" result="effect1_dropShadow"/>
<feBlend mode="normal" in="SourceGraphic" in2="effect1_dropShadow" result="shape"/>
</filter>
<filter id="filter16_d" x="205.38" y="138.761" width="84.8072" height="116.729" filterUnits="userSpaceOnUse" color-interpolation-filters="sRGB">
<feFlood flood-opacity="0" result="BackgroundImageFix"/>
<feColorMatrix in="SourceAlpha" type="matrix" values="0 0 0 0 0 0 0 0 0 0 0 0 0 0 0 0 0 0 127 0"/>
<feOffset dy="4"/>
<feGaussianBlur stdDeviation="4.5"/>
<feColorMatrix type="matrix" values="0 0 0 0 0 0 0 0 0 0 0 0 0 0 0 0 0 0 0.25 0"/>
<feBlend mode="normal" in2="BackgroundImageFix" result="effect1_dropShadow"/>
<feBlend mode="normal" in="SourceGraphic" in2="effect1_dropShadow" result="shape"/>
</filter>
<filter id="filter17_d" x="363.221" y="44.3507" width="80.0554" height="115.056" filterUnits="userSpaceOnUse" color-interpolation-filters="sRGB">
<feFlood flood-opacity="0" result="BackgroundImageFix"/>
<feColorMatrix in="SourceAlpha" type="matrix" values="0 0 0 0 0 0 0 0 0 0 0 0 0 0 0 0 0 0 127 0"/>
<feOffset dy="4"/>
<feGaussianBlur stdDeviation="4.5"/>
<feColorMatrix type="matrix" values="0 0 0 0 0 0 0 0 0 0 0 0 0 0 0 0 0 0 0.25 0"/>
<feBlend mode="normal" in2="BackgroundImageFix" result="effect1_dropShadow"/>
<feBlend mode="normal" in="SourceGraphic" in2="effect1_dropShadow" result="shape"/>
</filter>
<filter id="filter18_d" x="148.77" y="94.0524" width="98.9584" height="119.699" filterUnits="userSpaceOnUse" color-interpolation-filters="sRGB">
<feFlood flood-opacity="0" result="BackgroundImageFix"/>
<feColorMatrix in="SourceAlpha" type="matrix" values="0 0 0 0 0 0 0 0 0 0 0 0 0 0 0 0 0 0 127 0"/>
<feOffset dy="4"/>
<feGaussianBlur stdDeviation="4.5"/>
<feColorMatrix type="matrix" values="0 0 0 0 0 0 0 0 0 0 0 0 0 0 0 0 0 0 0.25 0"/>
<feBlend mode="normal" in2="BackgroundImageFix" result="effect1_dropShadow"/>
<feBlend mode="normal" in="SourceGraphic" in2="effect1_dropShadow" result="shape"/>
</filter>
<filter id="filter19_d" x="56.6128" y="218.114" width="46.5873" height="71.6185" filterUnits="userSpaceOnUse" color-interpolation-filters="sRGB">
<feFlood flood-opacity="0" result="BackgroundImageFix"/>
<feColorMatrix in="SourceAlpha" type="matrix" values="0 0 0 0 0 0 0 0 0 0 0 0 0 0 0 0 0 0 127 0"/>
<feOffset dy="4"/>
<feGaussianBlur stdDeviation="4.5"/>
<feColorMatrix type="matrix" values="0 0 0 0 0 0 0 0 0 0 0 0 0 0 0 0 0 0 0.25 0"/>
<feBlend mode="normal" in2="BackgroundImageFix" result="effect1_dropShadow"/>
<feBlend mode="normal" in="SourceGraphic" in2="effect1_dropShadow" result="shape"/>
</filter>
<filter id="filter20_d" x="487.972" y="164.834" width="46.5873" height="71.6185" filterUnits="userSpaceOnUse" color-interpolation-filters="sRGB">
<feFlood flood-opacity="0" result="BackgroundImageFix"/>
<feColorMatrix in="SourceAlpha" type="matrix" values="0 0 0 0 0 0 0 0 0 0 0 0 0 0 0 0 0 0 127 0"/>
<feOffset dy="4"/>
<feGaussianBlur stdDeviation="4.5"/>
<feColorMatrix type="matrix" values="0 0 0 0 0 0 0 0 0 0 0 0 0 0 0 0 0 0 0.25 0"/>
<feBlend mode="normal" in2="BackgroundImageFix" result="effect1_dropShadow"/>
<feBlend mode="normal" in="SourceGraphic" in2="effect1_dropShadow" result="shape"/>
</filter>
<filter id="filter21_d" x="181.611" y="243.898" width="69.7364" height="86.8188" filterUnits="userSpaceOnUse" color-interpolation-filters="sRGB">
<feFlood flood-opacity="0" result="BackgroundImageFix"/>
<feColorMatrix in="SourceAlpha" type="matrix" values="0 0 0 0 0 0 0 0 0 0 0 0 0 0 0 0 0 0 127 0"/>
<feOffset dy="4"/>
<feGaussianBlur stdDeviation="4.5"/>
<feColorMatrix type="matrix" values="0 0 0 0 0 0 0 0 0 0 0 0 0 0 0 0 0 0 0.25 0"/>
<feBlend mode="normal" in2="BackgroundImageFix" result="effect1_dropShadow"/>
<feBlend mode="normal" in="SourceGraphic" in2="effect1_dropShadow" result="shape"/>
</filter>
<filter id="filter22_d" x="0" y="52.1981" width="106.11" height="119.425" filterUnits="userSpaceOnUse" color-interpolation-filters="sRGB">
<feFlood flood-opacity="0" result="BackgroundImageFix"/>
<feColorMatrix in="SourceAlpha" type="matrix" values="0 0 0 0 0 0 0 0 0 0 0 0 0 0 0 0 0 0 127 0"/>
<feOffset dy="4"/>
<feGaussianBlur stdDeviation="4.5"/>
<feColorMatrix type="matrix" values="0 0 0 0 0 0 0 0 0 0 0 0 0 0 0 0 0 0 0.25 0"/>
<feBlend mode="normal" in2="BackgroundImageFix" result="effect1_dropShadow"/>
<feBlend mode="normal" in="SourceGraphic" in2="effect1_dropShadow" result="shape"/>
</filter>
<filter id="filter23_d" x="190.966" y="40.3472" width="97.9414" height="119.615" filterUnits="userSpaceOnUse" color-interpolation-filters="sRGB">
<feFlood flood-opacity="0" result="BackgroundImageFix"/>
<feColorMatrix in="SourceAlpha" type="matrix" values="0 0 0 0 0 0 0 0 0 0 0 0 0 0 0 0 0 0 127 0"/>
<feOffset dy="4"/>
<feGaussianBlur stdDeviation="4.5"/>
<feColorMatrix type="matrix" values="0 0 0 0 0 0 0 0 0 0 0 0 0 0 0 0 0 0 0.25 0"/>
<feBlend mode="normal" in2="BackgroundImageFix" result="effect1_dropShadow"/>
<feBlend mode="normal" in="SourceGraphic" in2="effect1_dropShadow" result="shape"/>
</filter>
<filter id="filter24_d" x="36.4341" y="105.929" width="97.9414" height="119.615" filterUnits="userSpaceOnUse" color-interpolation-filters="sRGB">
<feFlood flood-opacity="0" result="BackgroundImageFix"/>
<feColorMatrix in="SourceAlpha" type="matrix" values="0 0 0 0 0 0 0 0 0 0 0 0 0 0 0 0 0 0 127 0"/>
<feOffset dy="4"/>
<feGaussianBlur stdDeviation="4.5"/>
<feColorMatrix type="matrix" values="0 0 0 0 0 0 0 0 0 0 0 0 0 0 0 0 0 0 0.25 0"/>
<feBlend mode="normal" in2="BackgroundImageFix" result="effect1_dropShadow"/>
<feBlend mode="normal" in="SourceGraphic" in2="effect1_dropShadow" result="shape"/>
</filter>
<filter id="filter25_d" x="126.679" y="13.5217" width="109.033" height="118.719" filterUnits="userSpaceOnUse" color-interpolation-filters="sRGB">
<feFlood flood-opacity="0" result="BackgroundImageFix"/>
<feColorMatrix in="SourceAlpha" type="matrix" values="0 0 0 0 0 0 0 0 0 0 0 0 0 0 0 0 0 0 127 0"/>
<feOffset dy="4"/>
<feGaussianBlur stdDeviation="4.5"/>
<feColorMatrix type="matrix" values="0 0 0 0 0 0 0 0 0 0 0 0 0 0 0 0 0 0 0.25 0"/>
<feBlend mode="normal" in2="BackgroundImageFix" result="effect1_dropShadow"/>
<feBlend mode="normal" in="SourceGraphic" in2="effect1_dropShadow" result="shape"/>
</filter>
</defs>
</svg>
