<svg width="44" height="42" viewBox="0 0 44 42" fill="none" xmlns="http://www.w3.org/2000/svg">
<ellipse cx="22" cy="21" rx="22" ry="21" fill="white"/>
<path d="M3.52223 12.18H5.59023L7.50423 24.984L9.90223 12.246H11.6622L14.0822 25.05L15.9522 12.18H17.9762L15.1162 30H13.3122L10.8262 16.8L8.31823 30H6.42623L3.52223 12.18ZM21.9036 12.18H28.7896V13.962H24.3896V19.902H27.7996V21.662H24.3896V30H21.9036V12.18ZM36.4593 30.198C34.9633 30.198 33.8193 29.736 33.0273 28.812C32.25 27.888 31.8173 26.6193 31.7293 25.006L33.9293 24.412C34.0027 25.556 34.2227 26.48 34.5893 27.184C34.9707 27.888 35.594 28.24 36.4593 28.24C37.1047 28.24 37.5887 28.064 37.9113 27.712C38.2487 27.3453 38.4173 26.8247 38.4173 26.15C38.4173 25.4167 38.2633 24.808 37.9553 24.324C37.6473 23.84 37.156 23.3047 36.4813 22.718L33.4893 20.078C32.888 19.55 32.448 18.9853 32.1693 18.384C31.9053 17.768 31.7733 17.02 31.7733 16.14C31.7733 14.8347 32.1473 13.8227 32.8953 13.104C33.6433 12.3853 34.6627 12.026 35.9533 12.026C37.3613 12.026 38.4247 12.4 39.1433 13.148C39.862 13.896 40.2947 15.0547 40.4413 16.624L38.3293 17.196C38.256 16.1547 38.0507 15.3553 37.7133 14.798C37.3907 14.226 36.804 13.94 35.9533 13.94C35.3227 13.94 34.8387 14.1087 34.5013 14.446C34.164 14.7687 33.9953 15.2527 33.9953 15.898C33.9953 16.426 34.0833 16.8733 34.2593 17.24C34.4353 17.592 34.736 17.9513 35.1613 18.318L38.1753 20.958C38.9527 21.6473 39.5687 22.3953 40.0233 23.202C40.4927 24.0087 40.7273 24.9253 40.7273 25.952C40.7273 27.2573 40.3313 28.2913 39.5393 29.054C38.7473 29.8167 37.7207 30.198 36.4593 30.198Z" fill="#52AEE2"/>
</svg>
