<svg width="107" height="81" viewBox="0 0 107 81" fill="none" xmlns="http://www.w3.org/2000/svg">
<path d="M104.825 26.4367C105.638 25.7891 106.849 26.3916 106.85 27.4131L106.923 70.0443C106.933 75.5687 102.455 80.0583 96.9274 80.0678L10.1495 80.2159C4.62155 80.2253 0.12898 75.751 0.11955 70.2266L0.0468202 27.6162C0.0450411 26.5739 1.23307 25.9882 2.06858 26.633C6.74742 30.2523 12.9507 34.8488 34.2544 50.2598C38.6613 53.4627 46.099 60.2043 53.5043 60.15C60.9515 60.1998 68.5119 53.2866 72.7412 50.1941C93.9921 34.7105 100.159 30.072 104.825 26.4367ZM53.4929 53.4582C58.3326 53.5333 65.2893 47.3509 68.7894 44.8016C96.4365 24.6791 98.5404 22.9244 104.915 17.9103C106.123 16.9701 106.83 15.5097 106.827 13.967L106.821 10.0062C106.811 4.48184 102.319 0.00748393 96.7907 0.0169193L10.0128 0.165037C4.48491 0.174473 0.00764419 4.66414 0.0170735 10.1885L0.0238341 14.1493C0.0264672 15.692 0.738165 17.1292 1.94969 18.0861C8.34137 23.0575 10.4513 24.8259 38.1669 44.8539C41.6757 47.3912 48.6535 53.5499 53.4929 53.4582Z" fill="#52AEE2"/>
</svg>
